<svg xmlns="http://www.w3.org/2000/svg" width="40" height="40" viewBox="0 0 40 40">
    <g fill="none" fill-rule="evenodd">
        <circle cx="20" cy="20" r="19" stroke="#000" stroke-width="2"/>
        <g fill="#000" fill-rule="nonzero">
            <path d="M11.864 12.203h14.577c1.123 0 2.034.911 2.034 2.034v.509c0 .443-.142.853-.382 1.187.24.332.382.742.382 1.186v.508c0 1.123-.911 2.034-2.034 2.034H11.864v-7.458zm14.577 4.577H13.559v1.186h12.882a.339.339 0 0 0 .339-.339v-.508a.339.339 0 0 0-.34-.34zm0-2.882H13.559v1.187h12.882a.339.339 0 0 0 .339-.34v-.508a.339.339 0 0 0-.34-.339zM13.56 23.05a.339.339 0 0 0-.34.34v2.373c0 .187.152.339.34.339l14.405-.001.001 1.696H13.56a2.034 2.034 0 0 1-2.034-2.034V23.39c0-.581.244-1.105.635-1.476a2.027 2.027 0 0 1 1.4-.558h14.406v1.694z"/>
        </g>
    </g>
</svg>
